<svg width="32" height="32" viewBox="0 0 32 32" fill="none" xmlns="http://www.w3.org/2000/svg">
<g clip-path="url(#clip0_50516_309)">
<path d="M5.82954 17.6294V15.7065C12.2484 14.9256 18.7215 14.5475 25.2005 14.5748C25.2005 15.0853 25.2005 15.6044 25.1429 16.1234C26.9845 15.3993 28.9199 14.8792 30.9052 14.5748C29.6398 11.6752 27.3342 9.22411 24.343 7.59871C21.3517 5.97332 17.8405 5.26362 14.3495 5.5788C10.8585 5.89398 7.58108 7.21657 5.02139 9.34312C2.46171 11.4697 0.761561 14.2824 0.18248 17.3486L5.82954 17.6294Z" fill="#FDC305"/>
<path d="M26.1609 20.6158C25.0468 21.7049 24.8259 21.6368 24.8259 23.5512C24.8259 24.3254 24.8259 27.7203 24.8259 31.3619C27.0276 30.0737 28.8351 28.3226 30.0869 26.2649C31.3387 24.2071 31.996 21.9068 32 19.5693C31.9873 18.6837 31.8845 17.8009 31.6927 16.9317C29.7029 17.9778 27.848 19.2131 26.1609 20.6158Z" fill="#FDC305"/>
<path d="M6.10804 21.8835C6.10804 21.8835 2.46819 20.6583 1.12365 20.3265C0.755887 20.2238 0.380406 20.1442 0 20.0883C0.104101 22.5438 0.927336 24.933 2.38885 27.0214C3.85036 29.1098 5.89989 30.8255 8.33614 32L6.10804 21.8835Z" fill="#FDC305"/>
<path d="M25.2485 14.5663C25.2876 9.86855 24.8375 5.17759 23.904 0.553042C23.904 0.553042 23.7695 -0.544538 23.0492 0.348842C22.4835 1.41081 22.0953 2.54008 21.8968 3.70114C17.8073 3.46782 13.7023 3.56464 9.63266 3.99043C8.87396 1.70167 7.53902 0.638126 6.89556 0.850836C6.25211 1.06355 6.20409 3.66711 6.20409 3.66711L5.88716 15.6639C12.3037 14.8948 18.7736 14.528 25.2485 14.5663V14.5663Z" fill="#F06351"/>
<path d="M11.9184 11.9117C11.9184 11.8351 12.8787 12.4903 13.2725 12.6945C13.6663 12.8987 13.8583 13.0518 13.8583 13.1965C13.8583 13.3411 13.599 13.4858 13.2533 13.4858C12.9076 13.4858 12.3794 13.3837 12.2929 13.256H13.1957H13.4742C12.889 12.8726 12.3656 12.4204 11.9184 11.9117V11.9117Z" fill="black"/>
<path d="M19.102 12.0053L18.0552 13.1369C18.0552 13.188 17.892 13.4347 18.2281 13.3922C18.6259 13.3397 19.0179 13.2571 19.3998 13.1454C19.5054 13.1454 19.467 12.9838 19.2941 13.0008C19.1212 13.0178 18.6315 13.0433 18.3337 13.0944L19.1405 12.0223C19.1405 12.0223 19.2077 11.9117 19.102 12.0053Z" fill="black"/>
<path d="M16.0864 17.1869C16.5316 17.0132 16.8996 16.7141 17.1333 16.3361C17.4022 15.783 17.1333 15.5618 16.7107 15.4852C16.1324 15.3918 15.5356 15.4951 15.0396 15.7745C14.6651 16.0808 14.7131 16.3871 14.9916 16.6254C15.329 16.8519 15.6967 17.0405 16.0864 17.1869V17.1869Z" fill="black"/>
<path d="M15.7023 18.2505C15.5947 18.4449 15.4445 18.6184 15.2605 18.761C14.987 18.9559 14.6508 19.0691 14.3001 19.0843C13.7948 19.12 13.2923 18.9898 12.8884 18.7184C12.6984 18.617 12.5268 18.4908 12.3794 18.3441C12.2828 18.2497 12.1651 18.1743 12.0336 18.1228C12.0336 18.1228 12.7539 21.6113 14.5018 22.1643C16.2497 22.7174 16.557 21.5262 16.6146 21.2029C16.6724 20.2373 16.3978 19.2789 15.8271 18.4547C15.8079 18.1909 15.7983 18.3611 15.7023 18.2505Z" fill="#F06351"/>
<path d="M14.1272 19.2204C13.681 19.1649 13.2522 19.0291 12.8674 18.8213C12.4826 18.6135 12.1498 18.3382 11.8896 18.0122C11.8768 18.0011 11.8666 17.9879 11.8597 17.9733C11.8528 17.9587 11.8492 17.943 11.8492 17.9271C11.8492 17.9113 11.8528 17.8956 11.8597 17.881C11.8666 17.8664 11.8768 17.8532 11.8896 17.8421C11.9021 17.8307 11.917 17.8217 11.9335 17.8156C11.95 17.8095 11.9677 17.8063 11.9856 17.8063C12.0035 17.8063 12.0212 17.8095 12.0377 17.8156C12.0542 17.8217 12.0691 17.8307 12.0816 17.8421C12.5664 18.4327 13.2946 18.8302 14.108 18.9482V18.9482C14.4266 18.9269 14.7348 18.8386 15.007 18.6907C15.2793 18.5427 15.5078 18.3393 15.6735 18.0973L15.8079 17.9357L15.904 18.1143C15.904 18.1143 16.2593 18.761 16.8643 18.795C17.4694 18.829 17.8727 18.4462 18.4106 17.7059C18.4231 17.6946 18.438 17.6856 18.4545 17.6795C18.471 17.6733 18.4887 17.6702 18.5066 17.6702C18.5245 17.6702 18.5422 17.6733 18.5587 17.6795C18.5752 17.6856 18.5901 17.6946 18.6026 17.7059C18.6337 17.7235 18.6559 17.7509 18.6649 17.7825C18.6738 17.8142 18.6687 17.8477 18.6507 17.8761C18.036 18.7269 17.431 19.1013 16.8451 19.0673C16.6223 19.0386 16.4098 18.9655 16.2234 18.8535C16.0371 18.7415 15.8819 18.5935 15.7695 18.4206C15.5806 18.6542 15.335 18.8472 15.0508 18.9856C14.7666 19.124 14.451 19.2043 14.1272 19.2204V19.2204Z" fill="black"/>
<path d="M25.2005 16.0978C23.4761 17.4793 21.8499 18.9541 20.3313 20.5137C18.8222 22.0674 17.1177 23.4634 15.2509 24.6743C15.0396 24.2233 13.6951 23.3895 13.6951 23.3895C13.6951 23.3895 10.6891 21.5687 8.72029 20.1393C7.65824 19.3458 6.65421 18.4932 5.71429 17.5868L3.79352 17.4932C6.5692 21.0715 10.6317 23.7108 15.3181 24.9806C16.1441 24.8615 18.4586 23.398 20.1873 22.2069C22.2222 20.6599 24.1287 18.9851 25.892 17.1954C26.3745 16.6943 26.746 16.117 26.9868 15.4938C25.9304 15.8256 25.2005 16.0978 25.2005 16.0978Z" fill="#F06351"/>
</g>
<defs>
<clipPath id="clip0_50516_309">
<rect width="32" height="32" fill="white"/>
</clipPath>
</defs>
</svg>
