<svg width="236" height="88" viewBox="0 0 236 88" fill="none" xmlns="http://www.w3.org/2000/svg">
<g id="Frame 2087325674" clip-path="url(#clip0_335_9482)">
<g id="Group">
<path id="Vector" d="M29.9009 23.7196C29.4811 23.7196 29.2245 23.9762 29.2245 24.4427V28.1045H23.6035V24.4427C23.6035 23.9762 23.347 23.7196 22.9271 23.7196C22.5073 23.7196 22.2507 23.9762 22.2507 24.4427V33.2823C22.2507 33.7488 22.5073 34.0054 22.9271 34.0054C23.347 34.0054 23.6035 33.7488 23.6035 33.2823V29.364H29.2245V33.2823C29.2245 33.7488 29.4811 34.0054 29.9009 34.0054C30.3207 34.0054 30.5773 33.7488 30.5773 33.2823V24.4427C30.554 23.9762 30.3207 23.7196 29.9009 23.7196ZM36.828 28.7342L40.7231 24.8159C40.9096 24.6293 40.9796 24.4893 40.9796 24.2794C40.9796 23.9762 40.7697 23.7196 40.3965 23.7196C40.2099 23.7196 40.0467 23.7896 39.8834 23.9529L36.0583 27.778C35.8484 27.9879 35.6385 28.1045 35.3353 28.1045H34.5423V24.4427C34.5423 23.9762 34.2857 23.7196 33.8659 23.7196C33.4461 23.7196 33.1895 23.9762 33.1895 24.4427V33.2823C33.1895 33.7488 33.4461 34.0054 33.8659 34.0054C34.2857 34.0054 34.5423 33.7488 34.5423 33.2823V29.364H35.242C35.5452 29.364 35.7551 29.4806 35.965 29.6905L40.0233 33.7488C40.2099 33.9354 40.3499 33.982 40.5598 33.982C40.933 33.982 41.1662 33.7022 41.1662 33.3756C41.1662 33.1657 41.0729 33.0024 40.8863 32.7925L36.828 28.7342ZM45.2478 11.5447C44.6414 11.8712 43.8018 12.0812 43.0088 12.0812C41.7026 12.0812 40.8863 11.5214 40.8863 10.5185C40.8863 9.63217 41.586 8.93246 43.0088 8.93246C43.7551 8.93246 44.4315 9.04908 45.2478 9.28232V11.5447ZM43.1954 3.33479C42.0525 3.33479 41.0263 3.61467 40.3732 3.89456C39.8134 4.12779 39.5802 4.431 39.5802 4.87415C39.5802 5.38727 39.9767 5.76045 40.4432 5.76045C40.6764 5.76045 40.933 5.66715 41.1895 5.57386C41.6094 5.41059 42.3324 5.224 43.0321 5.224C44.5948 5.224 45.2478 5.80709 45.2478 7.01992V7.83625C44.3382 7.60301 43.6152 7.48639 42.7522 7.48639C40.1866 7.48639 38.9271 8.95579 38.9271 10.5651C38.9271 12.431 40.3266 13.8304 42.8222 13.8304C44.758 13.8304 46.2274 13.1774 46.8339 12.7809C47.1137 12.5943 47.207 12.4077 47.207 12.0112V7.04325C47.2303 4.50097 45.761 3.33479 43.1954 3.33479ZM67.8018 9.93538C67.3353 9.93538 67.0788 10.2153 66.9155 10.5185C66.5656 11.2881 65.8193 11.8246 64.793 11.8246C63.347 11.8246 62.484 10.9616 62.3674 9.65549C62.2974 8.95578 62.2974 8.16278 62.3674 7.48639C62.484 6.20359 63.347 5.3173 64.793 5.3173C65.8193 5.3173 66.5656 5.85374 66.9155 6.62342C67.1021 6.92663 67.3586 7.20651 67.8018 7.20651C68.3849 7.20651 68.8047 6.83333 68.8047 6.27357C68.8047 5.97036 68.6881 5.66715 68.5015 5.34062C67.8951 4.24441 66.6123 3.33479 64.7464 3.33479C62.2274 3.33479 60.5481 4.9208 60.3382 7.18319C60.2683 7.92955 60.2683 9.18902 60.3382 9.93538C60.5481 12.1978 62.2274 13.7838 64.7464 13.7838C66.6123 13.7838 67.8951 12.8975 68.5015 11.7779C68.6881 11.4514 68.7814 11.1482 68.7814 10.845C68.7814 10.3086 68.3849 9.91205 67.8018 9.93538ZM21.9942 11.9645L18.4723 8.44266L21.8076 5.10738C22.0642 4.85082 22.2041 4.59426 22.2041 4.29106C22.2041 3.80126 21.8542 3.42808 21.3411 3.42808C21.0379 3.42808 20.828 3.5447 20.5481 3.82459L17.1662 7.20651C16.9796 7.3931 16.793 7.48639 16.5131 7.48639H15.8134V4.47765C15.8134 3.80126 15.4169 3.40476 14.7872 3.40476C14.1574 3.40476 13.7609 3.80126 13.7609 4.47765V12.5943C13.7609 13.2707 14.1574 13.6672 14.7872 13.6672C15.4169 13.6672 15.8134 13.2707 15.8134 12.5943V9.35228H16.3965C16.6531 9.35228 16.863 9.46891 17.0496 9.63217L20.6647 13.2473C20.9679 13.5505 21.2012 13.6672 21.5044 13.6672C22.0408 13.6672 22.414 13.294 22.414 12.7575C22.3907 12.501 22.2507 12.2211 21.9942 11.9645ZM56.3266 9.65549C56.2099 10.9383 55.3936 11.8246 53.9242 11.8246C53.1546 11.8246 52.1983 11.5914 51.7318 11.2648V5.87707C52.1983 5.55053 53.1546 5.29397 53.9242 5.29397C55.3936 5.29397 56.2099 6.18027 56.3266 7.46307C56.3732 8.13946 56.3965 8.95578 56.3266 9.65549ZM53.9942 3.33479C52.2216 3.33479 50.7755 3.96453 50.2158 4.31438C49.7493 4.59427 49.7027 4.80418 49.7027 5.59718V15.9995C49.7027 16.6759 50.0992 17.0724 50.7289 17.0724C51.3586 17.0724 51.7551 16.6759 51.7551 15.9995V13.294C52.3615 13.5972 53.2945 13.8071 54.1808 13.8071C56.5365 13.8071 58.1458 12.2444 58.379 9.98203C58.449 9.21235 58.449 7.95287 58.379 7.18319C58.1458 4.89747 56.5132 3.33479 53.9942 3.33479ZM18.449 32.1395C17.7026 32.536 16.6764 32.8392 15.7434 32.8392C14.0641 32.8392 13.1079 32.1161 13.1079 30.9033C13.1079 29.8071 13.9475 28.9675 15.7434 28.9675C16.6297 28.9675 17.3761 29.1074 18.449 29.4106V32.1395ZM16.0467 23.6263C14.8805 23.6263 13.7376 23.9529 13.1079 24.2328C12.6881 24.4194 12.5015 24.6059 12.5015 24.9325C12.5015 25.2823 12.7814 25.5389 13.1079 25.5389C13.2711 25.5389 13.4577 25.4689 13.6443 25.3756C14.1108 25.1657 15.0204 24.9091 15.9067 24.9091C17.656 24.9091 18.449 25.6089 18.449 27.1949V28.1278C17.3528 27.8013 16.5598 27.708 15.6268 27.708C13.0846 27.708 11.7784 29.1774 11.7784 30.8333C11.7784 32.7692 13.2478 34.052 15.5569 34.052C17.4694 34.052 18.9388 33.3756 19.4752 32.9791C19.6851 32.8159 19.7551 32.6992 19.7551 32.396V27.1482C19.7784 24.7692 18.379 23.6263 16.0467 23.6263ZM6.22741 32.5826H2.42566V27.1715H6.22741C8.23324 27.1715 9.04957 28.1511 9.04957 29.8304C9.02625 31.5797 8.20992 32.5826 6.22741 32.5826ZM6.39068 25.8887H2.40233V21.7138H9.04957C9.49272 21.7138 9.79592 21.4572 9.79592 21.0374C9.79592 20.6409 9.49272 20.3844 9.04957 20.3844H2.23907C1.46939 20.3844 1.04956 20.8042 1.04956 21.5739V32.6992C1.04956 33.4689 1.49271 33.8887 2.23907 33.8887H6.39068C8.93295 33.8887 10.4257 32.396 10.4257 29.8071C10.4257 27.3115 8.93295 25.8887 6.39068 25.8887ZM29.8076 7.20651H33.1429C34.7289 7.20651 35.4286 8.02284 35.4286 9.39893C35.4286 10.8217 34.7289 11.6613 33.1429 11.6613H29.8076V7.20651ZM29.2945 13.6205H33.3761C36.0117 13.6205 37.5744 12.0811 37.5744 9.35228C37.5744 6.78669 36.0117 5.34062 33.3761 5.34062H29.8076V2.05199H35.7784C36.4315 2.05199 36.8513 1.65549 36.8513 1.04908C36.8513 0.465984 36.4315 0.0694833 35.7784 0.0694833H29.2945C28.2682 0.0694833 27.7085 0.629248 27.7085 1.65549V12.0112C27.7085 13.0607 28.2682 13.6205 29.2945 13.6205ZM3.96502 7.50972L5.83091 2.19193C5.90088 2.00534 5.97085 1.93537 6.11079 1.93537C6.25074 1.93537 6.3207 2.00534 6.36735 2.19193L8.23324 7.50972H3.96502ZM12.1983 12.7342C12.1983 12.5476 12.1749 12.361 12.0583 12.0812L8.27989 1.79543C7.83674 0.535954 7.16036 -0.000488281 6.11079 -0.000488281C5.06123 -0.000488281 4.38484 0.535954 3.9417 1.79543L0.139943 12.0812C0.0233251 12.4077 0 12.5943 0 12.7342C0 13.2707 0.419827 13.7138 1.02624 13.7138C1.51604 13.7138 1.86589 13.4806 2.0758 12.8742L3.31196 9.37561H8.90963L10.1458 12.8742C10.3324 13.4572 10.7055 13.6905 11.172 13.6905C11.7784 13.7138 12.1983 13.2707 12.1983 12.7342Z" fill="#170030"/>
<path id="Vector_2" d="M115.965 66.612C114.309 62.4137 110.181 60.1047 105.726 60.921L96.5833 62.5537C95.0673 62.8335 94.0644 64.2796 94.3209 65.7956C94.6008 67.3117 96.0469 68.3146 97.5629 68.058L106.706 66.4254C108.875 66.0289 110.228 67.335 110.764 68.6878C111.301 70.0405 111.207 71.9064 109.341 73.0959L95.9069 81.7956C94.6708 82.612 93.1314 82.6586 91.8486 81.9589C90.5425 81.2592 89.7728 79.9531 89.7728 78.4604V50.2388C89.7728 48.6994 88.5367 47.4399 86.974 47.4399C85.4346 47.4399 84.1751 48.6994 84.1751 50.2388V78.4137C84.1751 81.9822 86.041 85.1076 89.1664 86.8102C90.6125 87.6032 92.1751 87.9997 93.7378 87.9997C95.5338 87.9997 97.3297 87.4866 98.939 86.4371L112.373 77.7373C116.175 75.2884 117.621 70.8102 115.965 66.612ZM68.7349 60.8977L59.592 62.5303C58.076 62.8102 57.0731 64.2563 57.3297 65.7723C57.6095 67.2883 59.0556 68.2913 60.5716 68.0347L69.7145 66.4021C71.8836 66.0055 73.2364 67.3117 73.7728 68.6644C74.3093 70.0172 74.216 71.8831 72.3501 73.0726L58.9157 81.7723C57.6795 82.5887 56.1402 82.6353 54.8574 81.9356C53.5512 81.2359 52.7816 79.9298 52.7816 78.437V57.0259C52.7816 53.4574 50.9157 50.3321 47.7903 48.6294C44.6649 46.9268 41.0031 47.0668 38.0177 49.0026L4.26841 70.8802C0.466655 73.3525 -0.956087 77.8306 0.69989 82.0289C2.35587 86.2271 6.48415 88.5362 10.939 87.7199L40.42 82.4254C41.9361 82.1455 42.939 80.6994 42.6824 79.1834C42.4025 77.6674 40.9565 76.6644 39.4404 76.921L9.95937 82.2155C7.79028 82.612 6.4375 81.3058 5.90106 79.9531C5.36462 78.6003 5.45791 76.7344 7.3238 75.5449L41.0731 53.6673C42.3092 52.851 43.8486 52.8044 45.1314 53.5041C46.4375 54.2038 47.2072 55.5099 47.2072 57.0026V78.4137C47.2072 81.9822 49.0731 85.1076 52.1985 86.8102C53.6445 87.6032 55.2072 87.9997 56.7699 87.9997C58.5658 87.9997 60.3617 87.4866 61.9477 86.4371L75.3821 77.7373C79.1839 75.265 80.6066 70.7869 78.9507 66.5886C77.318 62.3904 73.1897 60.1047 68.7349 60.8977Z" fill="#009C32"/>
</g>
</g>
<defs>
<clipPath id="clip0_335_9482">
<rect width="236" height="88" fill="white" transform="translate(0 0.000488281)"/>
</clipPath>
</defs>
</svg>
